{"title":"Manny Pacquiao vs Chris Algieri Main Event.mp4","uid":11560608,"size":949560993,"categoryP":"video","categoryS":"tv_shows","magnet":"?xt=urn:btih:f3f9639ad09b0e9f40848618ff09f7e12658fbab&amp;dn=Manny+Pacquiao+vs+Chris+Algieri+Main+Event.mp4&amp;tr=udp%3A%2F%2Ftracker.openbittorrent.com%3A80&amp;tr=udp%3A%2F%2Fopen.demonii.com%3A1337&amp;tr=udp%3A%2F%2Ftracker.coppersurfer.tk%3A6969&amp;tr=udp%3A%2F%2Fexodus.desync.com%3A6969","seeders":15,"leechers":0,"uploader":"RicoHeat","files":1,"time":1416875829,"description":"This is ONLY the Main Event between Manny Pacquiao and Chris Algieri complete with analysis and in between rounds.  \n\nI had the original source re coded to a smaller size.. Quality is still pretty good.\n\nThanks and Enjoy! \n\nFormat                                   : MPEG-4\nFormat profile                           : Base Media\nCodec ID                                 : isom\nFile size                                : 906 MiB\nDuration                                 : 1h 8mn\nOverall bit rate mode                    : Variable\nOverall bit rate                         : 1 837 Kbps\nWriting application                      : Lavf54.63.104\n\nVideo\nID                                       : 1\nFormat                                   : MPEG-4 Visual\nFormat profile                           : Simple@L1\nFormat settings, BVOP                    : No\nFormat settings, QPel                    : No\nFormat settings, GMC                     : No warppoints\nFormat settings, Matrix                  : Default (H.263)\nCodec ID                                 : 20\nDuration                                 : 1h 8mn\nBit rate mode                            : Constant\nBit rate                                 : 1 680 Kbps\nWidth                                    : 720 pixels\nHeight                                   : 400 pixels\nDisplay aspect ratio                     : 16:9\nFrame rate mode                          : Variable\nFrame rate                               : 25.000 fps\nMinimum frame rate                       : 8.333 fps\nMaximum frame rate                       : 25.000 fps\nColor space                              : YUV\nChroma subsampling                       : 4:2:0\nBit depth                                : 8 bits\nScan type                                : Progressive\nCompression mode                         : Lossy\nBits/(Pixel*Frame)                       : 0.233\nStream size                              : 828 MiB (91%)\nWriting library                          : Lavc54.92.100\n\nAudio\nID                                       : 2\nFormat                                   : AAC\nFormat/Info                              : Advanced Audio Codec\nFormat profile                           : LC\nCodec ID                                 : 40\nDuration                                 : 1h 8mn\nDuration_FirstFrame                      : 70ms\nBit rate mode                            : Variable\nBit rate                                 : 152 Kbps\nMaximum bit rate                         : 176 Kbps\nChannel(s)                               : 2 channels\nChannel positions                        : Front: L R\nSampling rate                            : 44.1 KHz\nCompression mode                         : Lossy\nStream size                              : 74.9 MiB (8%)","torrent":{"xt":"urn:btih:f3f9639ad09b0e9f40848618ff09f7e12658fbab","amp;dn":"Manny+Pacquiao+vs+Chris+Algieri+Main+Event.mp4","amp;tr":["udp%3A%2F%2Ftracker.openbittorrent.com%3A80","udp%3A%2F%2Fopen.demonii.com%3A1337","udp%3A%2F%2Ftracker.coppersurfer.tk%3A6969","udp%3A%2F%2Fexodus.desync.com%3A6969"],"infoHash":"f3f9639ad09b0e9f40848618ff09f7e12658fbab","infoHashBuffer":{"type":"Buffer","data":[243,249,99,154,208,155,14,159,64,132,134,24,255,9,247,225,38,88,251,171]},"announce":[],"urlList":[]}}